REM DIRINDEX 1\2,1\3,1\4,1\5
REM DIRNAME "folder01","folder02","folder03","folder04","folder05"
TITLE ""
FILE "P1Q_t_0678-0687.mp3" MP3
  TRACK 01 AUDIO
    TITLE "3:cjc173_2972"
    INDEX 01 00:00:00
  TRACK 02 AUDIO
    TITLE "0:"
    INDEX 01 00:01:22
  TRACK 03 AUDIO
    TITLE "4:cjc173_2973"
    INDEX 01 00:01:41
  TRACK 04 AUDIO
    TITLE "0:"
    INDEX 01 00:04:67
  TRACK 05 AUDIO
    TITLE "5:cjc173_2974"
    INDEX 01 00:05:11
  TRACK 06 AUDIO
    TITLE "0:"
    INDEX 01 00:09:33
  TRACK 07 AUDIO
    TITLE "3:cjc173_2975"
    INDEX 01 00:10:05
  TRACK 08 AUDIO
    TITLE "0:"
    INDEX 01 00:11:12
  TRACK 09 AUDIO
    TITLE "4:cjc173_2976"
    INDEX 01 00:11:34
  TRACK 10 AUDIO
    TITLE "0:"
    INDEX 01 00:14:20
  TRACK 11 AUDIO
    TITLE "5:cjc173_2977"
    INDEX 01 00:14:40
  TRACK 12 AUDIO
    TITLE "0:"
    INDEX 01 00:18:36
  TRACK 13 AUDIO
    TITLE "3:cjc173_2978"
    INDEX 01 00:19:08
  TRACK 14 AUDIO
    TITLE "0:"
    INDEX 01 00:20:21
  TRACK 15 AUDIO
    TITLE "4:cjc173_2979"
    INDEX 01 00:20:44
  TRACK 16 AUDIO
    TITLE "0:"
    INDEX 01 00:22:63
  TRACK 17 AUDIO
    TITLE "5:cjc173_2980"
    INDEX 01 00:23:09
  TRACK 18 AUDIO
    TITLE "0:"
    INDEX 01 00:27:58
  TRACK 19 AUDIO
    TITLE "3:cjc173_2981"
    INDEX 01 00:28:30
  TRACK 20 AUDIO
    TITLE "0:"
    INDEX 01 00:29:51
  TRACK 21 AUDIO
    TITLE "4:cjc173_2982"
    INDEX 01 00:30:00
  TRACK 22 AUDIO
    TITLE "0:"
    INDEX 01 00:32:71
  TRACK 23 AUDIO
    TITLE "5:cjc173_2983"
    INDEX 01 00:33:16
  TRACK 24 AUDIO
    TITLE "0:"
    INDEX 01 00:39:14
  TRACK 25 AUDIO
    TITLE "3:cjc173_2984"
    INDEX 01 00:39:61
  TRACK 26 AUDIO
    TITLE "0:"
    INDEX 01 00:40:65
  TRACK 27 AUDIO
    TITLE "4:cjc173_2985"
    INDEX 01 00:41:11
  TRACK 28 AUDIO
    TITLE "0:"
    INDEX 01 00:43:28
  TRACK 29 AUDIO
    TITLE "5:cjc173_2986"
    INDEX 01 00:43:47
  TRACK 30 AUDIO
    TITLE "0:"
    INDEX 01 00:47:27
  TRACK 31 AUDIO
    TITLE "3:cjc173_2987"
    INDEX 01 00:47:71
  TRACK 32 AUDIO
    TITLE "0:"
    INDEX 01 00:49:17
  TRACK 33 AUDIO
    TITLE "4:cjc173_2988"
    INDEX 01 00:49:34
  TRACK 34 AUDIO
    TITLE "0:"
    INDEX 01 00:53:54
  TRACK 35 AUDIO
    TITLE "5:cjc173_2989"
    INDEX 01 00:54:02
  TRACK 36 AUDIO
    TITLE "0:"
    INDEX 01 00:58:68
  TRACK 37 AUDIO
    TITLE "3:cjc173_2990"
    INDEX 01 00:59:40
  TRACK 38 AUDIO
    TITLE "0:"
    INDEX 01 01:00:52
  TRACK 39 AUDIO
    TITLE "4:cjc173_2991"
    INDEX 01 01:00:73
  TRACK 40 AUDIO
    TITLE "0:"
    INDEX 01 01:05:22
  TRACK 41 AUDIO
    TITLE "5:cjc173_2992"
    INDEX 01 01:05:41
  TRACK 42 AUDIO
    TITLE "0:"
    INDEX 01 01:12:00
  TRACK 43 AUDIO
    TITLE "3:cjc173_2993"
    INDEX 01 01:12:45
  TRACK 44 AUDIO
    TITLE "0:"
    INDEX 01 01:13:58
  TRACK 45 AUDIO
    TITLE "4:cjc173_2994"
    INDEX 01 01:14:05
  TRACK 46 AUDIO
    TITLE "0:"
    INDEX 01 01:19:39
  TRACK 47 AUDIO
    TITLE "5:cjc173_2995"
    INDEX 01 01:19:59
  TRACK 48 AUDIO
    TITLE "0:"
    INDEX 01 01:24:21
  TRACK 49 AUDIO
    TITLE "3:cjc173_2996"
    INDEX 01 01:24:66
  TRACK 50 AUDIO
    TITLE "0:"
    INDEX 01 01:26:22
  TRACK 51 AUDIO
    TITLE "4:cjc173_2997"
    INDEX 01 01:26:43
  TRACK 52 AUDIO
    TITLE "0:"
    INDEX 01 01:32:14
  TRACK 53 AUDIO
    TITLE "5:cjc173_2998"
    INDEX 01 01:32:34
  TRACK 54 AUDIO
    TITLE "0:"
    INDEX 01 01:38:27
  TRACK 55 AUDIO
    TITLE "3:cjc173_2999"
    INDEX 01 01:39:01
  TRACK 56 AUDIO
    TITLE "0:"
    INDEX 01 01:40:28
  TRACK 57 AUDIO
    TITLE "4:cjc173_3000"
    INDEX 01 01:40:49
  TRACK 58 AUDIO
    TITLE "0:"
    INDEX 01 01:44:02
  TRACK 59 AUDIO
    TITLE "5:cjc173_3001"
    INDEX 01 01:44:20
  TRACK 60 AUDIO
    TITLE "0:"
    INDEX 01 01:49:40
